<?xml version="1.0" encoding="utf-8"?>
<!-- Generator: Adobe Illustrator 21.0.0, SVG Export Plug-In . SVG Version: 6.00 Build 0)  -->
<svg version="1.1" xmlns="http://www.w3.org/2000/svg" xmlns:xlink="http://www.w3.org/1999/xlink" x="0px" y="0px"
	 viewBox="0 0 513.1 73.1" style="enable-background:new 0 0 513.1 73.1;" xml:space="preserve">
<style type="text/css">
	.st0{fill:#E30611;}
</style>
<g id="MTS_Logo">
	<path class="st0" d="M37.7,17.6c4.8,7.9,7.7,17.7,7.7,26.2c0,12.5-7,25-22.7,25C7,68.9,0,56.3,0,43.9c0-8.5,2.9-18.3,7.7-26.2
		c4.6-7.7,10.2-12.2,15-12.2C27.4,5.4,33,10,37.7,17.6z M145.1,24.1H161v41.4h17V24.1h15.9V8.8l-48.8,0L145.1,24.1z M230.2,24.1
		h24.9V8.8h-24.9c-22.9,0-35.2,11.4-35.2,28.3s12.2,28.3,35.2,28.3h24.9V50.2h-24.9c-10.6,0-17.6-3.8-17.6-13S219.6,24.1,230.2,24.1
		z M110.5,8.8l-9.1,33.8L92.4,8.8h-30v56.7h17V19.4l12.4,46.1h19.5l12.4-46.1v46.1h17V8.8H110.5z M291.2,28.1c6.1,0,8.8-3.5,8.8-9.8
		c0-6.3-2.7-9.8-8.8-9.8c-6.1,0-8.8,3.6-8.8,9.8C282.3,24.6,285,28.1,291.2,28.1z M291.2,25.5c-3.6,0-5.5-2-5.5-6.1v-2.3
		c0-4.2,1.8-6.1,5.5-6.1c3.5,0,5.5,1.9,5.5,6.1v2.3C296.7,23.5,294.7,25.5,291.2,25.5z M302.9,18.3c0,6.7,3.7,9.8,10.2,9.8v7.2h3.2
		v-7.2c6.5,0,10.2-3.2,10.2-9.8s-3.8-9.8-10.2-9.8V0h-3.2v8.4C306.6,8.4,302.9,11.7,302.9,18.3z M306.3,19.3v-2.2c0-4,2.4-6,6.8-6
		v14.3C308.4,25.4,306.3,23.6,306.3,19.3z M316.3,11.1c4.5,0,6.8,1.9,6.8,6v2.2c0,4.3-2.2,6.1-6.8,6.1V11.1z M346.5,27.7V8.8h-4
		l-8.7,15.4V8.8h-3.2v18.9h4l8.7-15.4v15.4H346.5z M351.7,8.8v18.9h15.2V33h2.8v-7.9h-2.8V8.8h-3.2v16.4h-8.8V8.8H351.7z
		 M388.6,27.7V8.8h-4l-8.7,15.4V8.8h-3.2v18.9h4l8.7-15.4v15.4H388.6z M392.8,22.6c0,3.2,2.1,5.5,6.5,5.5c2.7,0,4.9-1,6.3-3v2.6h3
		V15.5c0-4.9-2.7-7.1-7.5-7.1c-4.7,0-7.3,2.2-7.6,6.1h3.2c0.3-2.5,1.9-3.5,4.4-3.5c2.8,0,4.3,1.1,4.3,4.5v0.8l-5.4,0.5
		C394.8,17.3,392.8,19,392.8,22.6z M399.8,25.7c-2.4,0-3.8-0.9-3.8-2.7v-0.8c0-2.1,1.3-2.8,4.1-3.1l5.2-0.5v1.9
		C405.3,24,402.8,25.7,399.8,25.7z M411.3,27.7h0.8c4.3,0,5.8-1.8,5.8-10v-6.3h7.2v16.4h3.2V8.8H415v8.9c0,5.8-0.8,7.1-2.9,7.1h-0.8
		V27.7z M433.5,27.7h7.8c4.4,0,6.6-2.3,6.6-6.4c0-3.8-2.2-6-6.6-6h-4.6V8.8h-3.2V27.7z M444.5,20.8v1.1c0,2-1.1,3.2-3.5,3.2h-4.2
		v-7.3h4.2C443.3,17.8,444.5,19,444.5,20.8z M466.5,27.7V8.8h-3.2v7.9h-9.1V8.8h-3.2v18.9h3.2v-8.4h9.1v8.4H466.5z M471.6,27.7h7.8
		c4.4,0,6.6-2.3,6.6-6.4c0-3.8-2.2-6-6.6-6h-4.6V8.8h-3.2V27.7z M482.6,20.8v1.1c0,2-1.1,3.2-3.5,3.2h-4.2v-7.3h4.2
		C481.4,17.8,482.6,19,482.6,20.8z M492,27.7V8.8h-3.2v18.9H492z M513.1,27.7V8.8h-4l-8.7,15.4V8.8h-3.2v18.9h4l8.7-15.4v15.4H513.1
		z M508.3,0.1c0,2.6-1,3.4-3.2,3.4c-2.1,0-3.2-0.8-3.2-3.4h-2.8c0,3.7,1.9,5.7,6,5.7c4.1,0,6-1.9,6-5.7H508.3z M298.7,65.5V46.6
		h-15.2v18.9h3.2V49.1h8.8v16.4H298.7z M302.8,60.4c0,3.2,2.1,5.5,6.5,5.5c2.7,0,4.9-1,6.3-3v2.6h3V53.3c0-4.9-2.7-7.1-7.5-7.1
		c-4.7,0-7.3,2.2-7.6,6.1h3.2c0.3-2.5,1.9-3.5,4.4-3.5c2.8,0,4.3,1.1,4.3,4.5v0.8l-5.4,0.5C304.9,55.1,302.8,56.8,302.8,60.4z
		 M309.8,63.5c-2.4,0-3.8-0.9-3.8-2.7v-0.8c0-2.1,1.3-2.8,4.1-3.1l5.2-0.5v1.9C315.4,61.8,312.9,63.5,309.8,63.5z M326.8,73.1V62.8
		c1.3,2,3.4,3,6.3,3c5.5,0,8.1-3.7,8.1-9.8c0-6.1-2.6-9.8-8.1-9.8c-3,0-5.2,1.2-6.5,3.4v-3h-3v26.5H326.8z M332.3,63.3
		c-3.5,0-5.5-2.2-5.5-6.1v-2.6c0.1-3.7,2-5.8,5.5-5.8c3.6,0,5.5,2.3,5.5,6.1v2.3C337.8,61.1,335.8,63.3,332.3,63.3z M358.1,49.1
		v-2.5h-15.7v2.5h6.3v16.4h3.2V49.1H358.1z M376.6,65.5V46.6h-3.2v7.9h-9.1v-7.9h-3.2v18.9h3.2v-8.4h9.1v8.4H376.6z M389.3,63.3
		c-3.5,0-5.2-2.3-5.2-6.1v-1.5h13.3v-0.8c0-5.8-2.9-8.7-8.1-8.7c-5.9,0-8.6,3.6-8.6,9.8c0,6.2,2.7,9.8,8.6,9.8
		c4.5,0,7.4-1.9,8.1-6.1h-3.2C393.7,62.5,391.8,63.3,389.3,63.3z M387.4,40c0-1.4-0.8-2.2-2.3-2.2c-1.5,0-2.2,0.8-2.2,2.2
		c0,1.5,0.8,2.3,2.2,2.3C386.7,42.3,387.4,41.6,387.4,40z M389.2,48.8c3,0,4.4,1.4,4.7,4.5h-9.8C384.5,50.2,386,48.8,389.2,48.8z
		 M395.3,40c0-1.4-0.8-2.2-2.3-2.2c-1.5,0-2.3,0.8-2.3,2.2c0,1.5,0.8,2.3,2.3,2.3C394.5,42.3,395.3,41.6,395.3,40z M404.6,73.1V62.8
		c1.3,2,3.4,3,6.3,3c5.5,0,8.1-3.7,8.1-9.8c0-6.1-2.6-9.8-8.1-9.8c-3,0-5.2,1.2-6.5,3.4v-3h-3v26.5H404.6z M410.1,63.3
		c-3.5,0-5.5-2.2-5.5-6.1v-2.6c0.1-3.7,2-5.8,5.5-5.8c3.6,0,5.5,2.3,5.5,6.1v2.3C415.6,61.1,413.7,63.3,410.1,63.3z"/>
</g>
<g id="Guides">
</g>
</svg>
