<?xml version="1.0"?>
<svg xmlns="http://www.w3.org/2000/svg" xmlns:xlink="http://www.w3.org/1999/xlink" xmlns:svgjs="http://svgjs.com/svgjs" version="1.1" width="512" height="512" x="0" y="0" viewBox="0 0 512 512" style="enable-background:new 0 0 512 512" xml:space="preserve" class=""><g><g xmlns="http://www.w3.org/2000/svg" id="XMLID_1329_"><g id="XMLID_288_"><path id="XMLID_316_" d="m462 28h-412c-27.57 0-50 22.43-50 50v260c0 27.57 22.43 50 50 50h412c27.57 0 50-22.43 50-50v-260c0-27.57-22.43-50-50-50zm30 310c0 16.542-13.458 30-30 30h-412c-16.542 0-30-13.458-30-30v-260c0-16.542 13.458-30 30-30h412c16.542 0 30 13.458 30 30z" fill="#e30611" data-original="#000000" style="" class=""/><path id="XMLID_320_" d="m458 72h-157c-5.523 0-10 4.478-10 10s4.477 10 10 10h147v232h-384v-232h147c5.523 0 10-4.478 10-10s-4.477-10-10-10h-157c-5.523 0-10 4.478-10 10v252c0 5.522 4.477 10 10 10h404c5.523 0 10-4.478 10-10v-252c0-5.522-4.477-10-10-10z" fill="#e30611" data-original="#000000" style="" class=""/><path id="XMLID_323_" d="m279.458 260.698h24.894c12.86 0 24.399-5.847 32.491-16.463 7.279-9.549 11.287-22.417 11.287-36.235 0-31.521-17.877-52.698-44.486-52.698h-24.186c-5.523 0-10 4.478-10 10v85.396c0 5.523 4.477 10 10 10zm48.671-52.698c0 16.249-8.167 32.698-23.778 32.698h-14.894v-65.396h14.186c18.054 0 24.486 16.89 24.486 32.698z" fill="#e30611" data-original="#000000" style="" class=""/><path id="XMLID_324_" d="m183.871 196.491v-32.491c0-5.522-4.477-10-10-10s-10 4.478-10 10v88c0 5.522 4.477 10 10 10s10-4.478 10-10v-35.509h40.897v35.509c0 5.522 4.477 10 10 10s10-4.478 10-10v-88c0-5.522-4.477-10-10-10s-10 4.478-10 10v32.491z" fill="#e30611" data-original="#000000" style="" class=""/><path id="XMLID_347_" d="m448 440h-280.725c-4.281-13.883-17.229-24-32.497-24s-28.217 10.117-32.497 24h-38.281c-5.523 0-10 4.478-10 10s4.477 10 10 10h38.281c4.281 13.883 17.229 24 32.497 24s28.217-10.117 32.497-24h280.725c5.523 0 10-4.478 10-10s-4.477-10-10-10zm-313.222 24c-7.72 0-14-6.28-14-14s6.28-14 14-14 14 6.28 14 14-6.28 14-14 14z" fill="#e30611" data-original="#000000" style="" class=""/><path id="XMLID_348_" d="m256 92c2.63 0 5.21-1.07 7.07-2.931 1.86-1.859 2.93-4.439 2.93-7.069s-1.07-5.21-2.93-7.07-4.44-2.93-7.07-2.93-5.21 1.069-7.07 2.93c-1.86 1.86-2.93 4.44-2.93 7.07s1.07 5.21 2.93 7.069c1.86 1.861 4.44 2.931 7.07 2.931z" fill="#e30611" data-original="#000000" style="" class=""/></g></g></g></svg>
