<?xml version="1.0"?>
<svg xmlns="http://www.w3.org/2000/svg" xmlns:xlink="http://www.w3.org/1999/xlink" xmlns:svgjs="http://svgjs.com/svgjs" version="1.1" width="512" height="512" x="0" y="0" viewBox="0 0 300 300" style="enable-background:new 0 0 512 512" xml:space="preserve" class=""><g><g xmlns="http://www.w3.org/2000/svg"><g><g><path d="m100 100c-3.456 0-6.25 2.794-6.25 6.25v100c0 3.456 2.794 6.25 6.25 6.25h100c3.456 0 6.25-2.794 6.25-6.25v-100c0-3.456-2.794-6.25-6.25-6.25zm93.75 100h-87.5v-87.5h87.5z" fill="#e30611" data-original="#000000" style="" class=""/><path d="m293.75 162.5c3.456 0 6.25-2.794 6.25-6.25s-2.794-6.25-6.25-6.25h-50v-37.5h50c3.456 0 6.25-2.794 6.25-6.25s-2.794-6.25-6.25-6.25h-50v-31.25c0-3.456-2.794-6.25-6.25-6.25h-31.25v-56.25c0-3.456-2.794-6.25-6.25-6.25s-6.25 2.794-6.25 6.25v56.25h-37.5v-56.25c0-3.456-2.794-6.25-6.25-6.25s-6.25 2.794-6.25 6.25v56.25h-37.5v-56.25c0-3.456-2.794-6.25-6.25-6.25s-6.25 2.794-6.25 6.25v56.25h-31.25c-3.456 0-6.25 2.794-6.25 6.25v31.25h-50c-3.456 0-6.25 2.794-6.25 6.25s2.794 6.25 6.25 6.25h50v37.5h-50c-3.456 0-6.25 2.794-6.25 6.25s2.794 6.25 6.25 6.25h50v37.5h-50c-3.456 0-6.25 2.794-6.25 6.25s2.794 6.25 6.25 6.25h50v31.25c0 3.456 2.794 6.25 6.25 6.25h31.25v43.75c0 3.456 2.794 6.25 6.25 6.25s6.25-2.794 6.25-6.25v-43.75h37.5v43.75c0 3.456 2.794 6.25 6.25 6.25s6.25-2.794 6.25-6.25v-43.75h37.5v43.75c0 3.456 2.794 6.25 6.25 6.25s6.25-2.794 6.25-6.25v-43.75h31.25c3.456 0 6.25-2.794 6.25-6.25v-31.25h50c3.456 0 6.25-2.794 6.25-6.25s-2.794-6.25-6.25-6.25h-50v-37.5zm-62.5 75h-162.5v-162.5h162.5z" fill="#e30611" data-original="#000000" style="" class=""/></g></g></g><g xmlns="http://www.w3.org/2000/svg"/><g xmlns="http://www.w3.org/2000/svg"/><g xmlns="http://www.w3.org/2000/svg"/><g xmlns="http://www.w3.org/2000/svg"/><g xmlns="http://www.w3.org/2000/svg"/><g xmlns="http://www.w3.org/2000/svg"/><g xmlns="http://www.w3.org/2000/svg"/><g xmlns="http://www.w3.org/2000/svg"/><g xmlns="http://www.w3.org/2000/svg"/><g xmlns="http://www.w3.org/2000/svg"/><g xmlns="http://www.w3.org/2000/svg"/><g xmlns="http://www.w3.org/2000/svg"/><g xmlns="http://www.w3.org/2000/svg"/><g xmlns="http://www.w3.org/2000/svg"/><g xmlns="http://www.w3.org/2000/svg"/></g></svg>
